<svg viewBox="0 0 480 100" fill="none" xmlns="http://www.w3.org/2000/svg">
  <!-- Icon -->
  <circle cx="50" cy="50" r="50" fill="#6B20E8"/>
  <path d="M50 0 A50 50 0 0 0 50 100 C18 93 8 73 8 50 C8 27 18 7 50 0Z" fill="#4A0EBF" opacity="0.42"/>
  <path d="M21 76 C21 42 24 22 30 22 C36 22 39 42 39 76Z" fill="white" opacity="0.80"/>
  <path d="M37 76 C37 36 41 14 47 14 C53 14 57 36 57 76Z" fill="white"/>
  <path d="M53 76 C53 42 57 22 63 22 C69 22 72 42 72 76Z" fill="white" opacity="0.90"/>
  <!-- Wordmark text -->
  <text x="118" y="70" font-family="-apple-system, BlinkMacSystemFont, 'Inter', 'Segoe UI', sans-serif"
        font-size="54" font-weight="800" fill="#6B20E8" letter-spacing="-1">STATVORA</text>
</svg>
